#!OML:ASF H:\Not Pregnant\Project 1\Capture day 1\Session 1\non-pregnant.ASF
:FULLY-SPECIFIED
:DEGREES
556
root -5.16666 15.7788 36.1658 205.886 -72.8657 -199.74
lowerback -7.87927 2.33297 -8.26387
upperback -2.43419 3.64457 -3.19868
thorax 1.5648 1.74354 1.62366
lowerneck 19.0707 -6.35651 -19.3066
upperneck -17.1668 -18.294 55.8994
head 1.31166 -16.4441 41.571
rclavicle -1.55922e-014 1.59028e-014
rhumerus -31.6377 9.09577 -96.3377
rradius 27.3325
rwrist 20.6613
rhand -16.4799 -0.227576
rfingers 7.12502
rthumb 9.73716 -29.9825
lclavicle -1.55922e-014 1.59028e-014
lhumerus -40.0652 -17.8487 94.6691
lradius 33.0736
lwrist 39.5764
lhand -14.7019 -12.6395
lfingers 7.12502
lthumb 11.4523 17.0278
rfemur -23.1487 13.9989 5.43603
rtibia 37.1048
rfoot -19.9191 -5.73067
rtoes -20.4846
lfemur -16.1122 18.6096 -31.3242
ltibia 22.4446
lfoot -18.0956 -18.0138
ltoes -6.74266
557
root -5.16701 15.7797 36.1434 205.909 -72.8967 -199.811
lowerback -7.8768 2.32393 -8.30579
upperback -2.41536 3.6378 -3.15432
thorax 1.57802 1.74024 1.69246
lowerneck 19.1723 -6.38055 -19.3609
upperneck -17.1195 -18.3255 55.8779
head 1.32206 -16.4489 41.4688
rclavicle 2.19284e-014 -6.67916e-014
rhumerus -31.6367 9.00167 -96.2598
rradius 27.314
rwrist 20.725
rhand -16.5264 -0.257302
rfingers 7.12502
rthumb 9.69231 -30.0143
lclavicle 2.19284e-014 -6.67916e-014
lhumerus -40.1221 -17.8725 94.7413
lradius 33.1934
lwrist 39.8712
lhand -14.9884 -12.4438
lfingers 7.12502
lthumb 11.176 17.2385
rfemur -23.0499 13.8933 5.53518
rtibia 37.0884
rfoot -19.9962 -5.60088
rtoes -20.3324
lfemur -15.9995 18.6574 -31.2235
ltibia 22.3881
lfoot -18.0874 -18.0801
ltoes -6.80685
558
root -5.16695 15.7804 36.1242 205.949 -72.9295 -199.868
lowerback -7.88096 2.32209 -8.28678
upperback -2.41054 3.63546 -3.12847
thorax 1.58521 1.73936 1.70895
lowerneck 19.2822 -6.40659 -19.4064
upperneck -17.081 -18.3557 55.8577
head 1.32478 -16.4536 41.3676
rclavicle 3.87506e-014 -3.89618e-014
rhumerus -31.6336 8.89033 -96.1831
rradius 27.2892
rwrist 20.7906
rhand -16.5662 -0.270533
rfingers 7.12502
rthumb 9.65392 -30.0293
lclavicle 3.87506e-014 -3.89618e-014
lhumerus -40.1686 -17.8867 94.786
lradius 33.2679
lwrist 40.0591
lhand -15.1707 -12.3169
lfingers 7.12502
lthumb 11.0002 17.3749
rfemur -22.9937 13.7253 5.61716
rtibia 37.0683
rfoot -20.0765 -5.41326
rtoes -20.1878
lfemur -15.9343 18.6299 -31.1407
ltibia 22.3499
lfoot -18.0933 -18.0576
ltoes -6.98446
559
root -5.16642 15.7811 36.1088 206.002 -72.9627 -199.902
lowerback -7.89814 2.31845 -8.20191
upperback -2.42017 3.62601 -3.11079
thorax 1.5901 1.73521 1.68056
lowerneck 19.398 -6.42588 -19.4617
upperneck -17.0403 -18.3767 55.8294
head 1.31951 -16.4512 41.2731
rclavicle 2.28727e-014 -1.98785e-014
rhumerus -31.6361 8.84636 -96.1221
rradius 27.2706
rwrist 20.8028
rhand -16.6047 -0.294613
rfingers 7.12502
rthumb 9.61671 -30.0551
lclavicle 2.28727e-014 -1.98785e-014
lhumerus -40.1999 -17.8439 94.7875
lradius 33.2691
lwrist 40.0437
lhand -15.1791 -12.3229
lfingers 7.12502
lthumb 10.992 17.3693
rfemur -22.988 13.5025 5.67948
rtibia 37.0413
rfoot -20.1543 -5.17253
rtoes -20.0525
lfemur -15.9237 18.5232 -31.0786
ltibia 22.3265
lfoot -18.1098 -17.9418
ltoes -7.27164
560
root -5.16589 15.7821 36.0928 206.035 -73.001 -199.917
lowerback -7.91133 2.31905 -8.10835
upperback -2.42927 3.62114 -3.09866
thorax 1.59384 1.73333 1.64181
lowerneck 19.5139 -6.44869 -19.5132
upperneck -17.0071 -18.4044 55.8047
head 1.3169 -16.4548 41.1838
rclavicle -1.45982e-014 -3.18055e-015
rhumerus -31.6417 8.83182 -96.0828
rradius 27.2612
rwrist 20.7565
rhand -16.6293 -0.323496
rfingers 7.12502
rthumb 9.59302 -30.0851
lclavicle -1.45982e-014 -3.18055e-015
lhumerus -40.2083 -17.7748 94.7478
lradius 33.193
lwrist 39.844
lhand -15.0109 -12.4503
lfingers 7.12502
lthumb 11.1542 17.2332
rfemur -22.9739 13.2813 5.75097
rtibia 37.0058
rfoot -20.231 -4.92007
rtoes -19.8765
lfemur -15.9123 18.4134 -31.0047
ltibia 22.3086
lfoot -18.124 -17.8268
ltoes -7.53521
